ply
format ascii 1.0
comment Created by Blender 2.82 (sub 7) - www.blender.org, source file: ''
element vertex 7
property float x
property float y
property float z
property float nx
property float ny
property float nz
property uchar red
property uchar green
property uchar blue
property uchar alpha
element face 3
property list uchar uint vertex_indices
end_header
0.581442 -0.581442 -0.000000 0.000000 -0.000000 1.000000 173 196 194 255
-0.581442 0.581442 0.000000 0.000000 -0.000000 1.000000 173 196 194 255
-0.581442 -0.581442 -0.000000 0.000000 -0.000000 1.000000 173 196 194 255
0.581442 0.581442 0.000000 0.000000 -0.000000 1.000000 173 196 194 255
0.400000 0.400000 1.500000 0.000000 -0.928465 0.371380 255 21 24 255
-0.400000 -0.400000 -0.500000 0.000000 -0.928465 0.371380 255 6 14 255
0.000000 -0.400000 -0.500000 0.000000 -0.928465 0.371380 255 3 13 255
3 0 1 2
3 0 3 1
3 4 5 6
